<?xml version="1.0" standalone="no"?>
<!DOCTYPE svg PUBLIC "-//W3C//DTD SVG 20010904//EN"
 "http://www.w3.org/TR/2001/REC-SVG-20010904/DTD/svg10.dtd">
<svg version="1.0" xmlns="http://www.w3.org/2000/svg"
 width="1000.000000pt" height="1000.000000pt" viewBox="0 0 1000.000000 1000.000000"
 preserveAspectRatio="xMidYMid meet">

<g transform="translate(0.000000,1000.000000) scale(0.100000,-0.100000)"
fill="#000000" stroke="none">
<path d="M5358 9065 c-112 -135 -228 -283 -259 -329 -30 -46 -109 -198 -174
-337 -250 -539 -306 -638 -1043 -1868 -282 -469 -512 -856 -512 -860 0 -3 62
-38 138 -77 l138 -72 83 142 c272 459 771 1299 869 1461 367 605 512 783 919
1123 213 178 251 240 473 780 34 83 66 152 71 152 11 0 -12 -59 -146 -385
-158 -384 -138 -350 -380 -640 -350 -420 -506 -649 -988 -1455 -229 -382 -397
-657 -579 -945 -52 -82 -118 -187 -146 -232 l-52 -82 47 -36 c26 -19 50 -32
54 -28 4 5 240 400 525 878 725 1220 766 1285 1173 1845 110 151 220 313 245
360 48 92 276 659 276 689 0 9 -6 26 -14 36 -13 18 -14 17 -30 -8 -10 -14 -51
-106 -92 -204 -96 -228 -145 -330 -187 -384 -18 -24 -49 -71 -70 -105 -64
-106 -148 -174 -437 -354 -91 -56 -212 -135 -270 -175 -136 -93 -140 -94 -140
-49 0 52 82 379 130 518 50 144 76 196 129 261 23 28 45 64 50 82 5 17 24 53
42 80 26 37 277 351 357 446 8 9 12 17 9 17 -3 0 -97 -110 -209 -245z"/>
<path d="M7893 8633 c-11 -15 -57 -91 -103 -168 -118 -198 -242 -398 -257
-413 -7 -7 -13 -17 -13 -22 0 -15 -32 -20 -45 -6 -8 8 -25 11 -40 9 -18 -4
-31 1 -43 15 -20 22 -81 28 -94 8 -4 -6 -11 1 -17 17 -9 22 -17 27 -45 27 -19
0 -37 4 -41 9 -5 9 -91 27 -107 23 -5 -1 -8 1 -8 6 -1 18 -18 32 -33 26 -9 -3
-14 -10 -11 -15 6 -10 -25 0 -43 14 -8 5 -13 5 -13 0 0 -12 -60 -47 -67 -39
-4 3 0 6 7 6 7 0 11 3 8 6 -10 9 -69 -26 -63 -36 4 -6 0 -10 -8 -10 -7 0 -24
-11 -37 -25 -12 -13 -27 -22 -33 -18 -6 3 -7 1 -3 -6 4 -6 0 -14 -8 -17 -21
-8 -94 -120 -145 -222 -212 -423 -194 -736 63 -1141 l66 -103 -155 -288 c-85
-158 -155 -292 -155 -296 0 -5 89 -40 198 -78 275 -95 617 -223 673 -251 l46
-24 183 299 c156 255 200 321 200 296 0 -3 -83 -141 -185 -307 -110 -179 -182
-305 -175 -309 5 -3 21 -21 34 -39 l25 -33 23 39 c14 21 91 148 173 283 81
135 154 251 160 258 7 7 86 29 176 48 472 102 775 263 1006 536 196 231 295
421 343 657 46 227 9 434 -126 703 -30 60 -56 108 -58 108 -2 0 14 -41 35 -91
88 -204 123 -439 74 -505 -18 -26 -136 -26 -185 -2 -31 16 -36 16 -46 3 -13
-18 -41 -20 -46 -3 -2 6 -24 13 -48 14 -25 1 -46 7 -48 13 -2 7 -10 7 -26 0
-18 -8 -33 -6 -69 11 -33 16 -57 20 -80 16 -17 -3 -42 -8 -54 -10 -30 -6 -68
-42 -105 -99 -27 -43 -109 -117 -128 -117 -4 0 -25 -8 -46 -17 -22 -9 -44 -17
-49 -19 -6 -1 -35 -9 -65 -17 -96 -28 -362 -96 -435 -112 -38 -9 -80 -17 -92
-20 -17 -4 -29 7 -66 68 -24 39 -62 104 -83 142 -20 39 -57 105 -81 149 -67
124 -100 226 -73 226 6 0 10 -6 10 -13 0 -28 251 -517 265 -517 2 0 -40 86
-93 191 -78 152 -97 199 -97 233 0 37 20 78 149 302 82 142 188 326 235 408
l85 148 -29 52 c-38 70 -40 71 -62 39z m23 -9 c-4 -10 -96 -170 -205 -358
-109 -188 -213 -370 -231 -406 -18 -36 -35 -60 -37 -53 -2 6 6 31 17 55 47 94
446 778 454 778 4 0 5 -7 2 -16z m1365 -1154 c-26 -165 -113 -368 -226 -525
-70 -99 -217 -261 -268 -297 -18 -12 13 25 68 83 229 242 380 524 418 781 7
47 13 71 15 55 2 -15 -1 -59 -7 -97z"/>
<path d="M9120 8190 c6 -11 13 -20 16 -20 2 0 0 9 -6 20 -6 11 -13 20 -16 20
-2 0 0 -9 6 -20z"/>
<path d="M2744 5760 c-29 -11 -33 -25 -50 -173 -26 -222 -74 -351 -169 -455
-27 -31 -41 -50 -30 -45 38 21 201 55 280 59 44 3 89 9 100 13 11 5 28 12 38
15 17 5 17 8 1 37 -11 23 -14 46 -10 88 7 71 25 182 31 200 25 68 7 235 -25
236 -8 1 -25 6 -37 13 -13 7 -23 10 -23 6 0 -3 -6 -2 -12 3 -17 12 -67 14 -94
3z"/>
<path d="M3345 5314 c-17 -15 -29 -30 -27 -36 1 -5 -2 -7 -8 -3 -5 3 -13 -1
-16 -9 -3 -9 -12 -16 -20 -16 -7 0 -25 -11 -40 -25 -15 -14 -33 -25 -42 -25
-8 0 -12 -6 -9 -14 3 -8 2 -16 -2 -18 -16 -6 -23 -48 -9 -49 50 -3 88 -8 97
-13 5 -4 12 -2 16 4 4 6 10 8 14 6 4 -3 17 3 28 14 12 10 24 16 28 12 4 -4 13
2 21 13 8 11 17 19 19 18 13 -7 25 -2 25 10 0 20 33 55 48 50 18 -7 15 11 -8
38 -42 51 -41 50 -54 40 -7 -6 -15 -8 -19 -5 -3 3 -8 -4 -12 -15 -7 -23 -45
-49 -45 -31 0 5 5 10 10 10 6 0 10 5 10 12 0 6 7 20 17 30 26 29 10 30 -22 2z"/>
<path d="M3490 5225 c0 -8 -4 -15 -10 -15 -5 0 -10 -4 -10 -10 0 -6 10 -5 25
2 28 13 32 23 10 32 -9 3 -15 0 -15 -9z"/>
<path d="M3867 5175 c-10 -7 -26 -11 -36 -8 -10 3 -22 0 -26 -6 -4 -8 -11 -6
-21 4 -9 8 -21 15 -27 15 -7 0 -6 -4 3 -10 13 -8 13 -11 1 -22 -10 -10 -12
-10 -7 0 4 6 2 12 -3 12 -6 0 -11 -5 -11 -11 0 -7 -9 -9 -22 -6 -22 6 -22 6
-4 -8 17 -13 18 -15 3 -15 -9 0 -17 -4 -17 -10 0 -5 -6 -10 -14 -10 -16 0 -16
-21 0 -41 6 -8 12 -53 13 -100 3 -109 -17 -195 -76 -319 -67 -142 -71 -162
-54 -320 19 -181 20 -377 2 -410 -7 -14 -42 -63 -76 -110 -35 -47 -131 -191
-214 -320 -177 -277 -378 -588 -440 -680 -81 -121 -143 -162 -222 -146 -45 9
-157 79 -215 133 -58 56 -124 162 -124 199 0 41 29 133 65 209 18 39 123 252
233 475 110 223 209 428 221 455 25 60 51 160 51 195 -1 41 -36 107 -82 150
-98 94 -192 136 -338 152 l-95 10 -65 64 c-36 34 -89 80 -119 101 -100 71
-107 79 -94 102 12 19 11 19 -20 9 -110 -35 -174 -66 -213 -103 -28 -26 -106
-145 -225 -340 -522 -860 -689 -1136 -718 -1187 -72 -127 -61 -422 23 -612
111 -251 413 -520 797 -711 588 -291 1031 -216 1321 226 65 99 649 1093 719
1225 107 198 116 278 69 559 -43 257 -41 356 11 465 56 118 128 188 366 358
91 65 105 118 54 207 -33 56 -60 84 -111 112 -48 27 -157 64 -195 66 -16 2
-35 5 -40 9 -6 3 -18 0 -28 -7z m-1218 -669 c26 -14 62 -41 79 -61 27 -30 32
-44 31 -83 l0 -47 -17 44 c-9 24 -23 46 -31 49 -9 3 -11 0 -6 -7 9 -16 -3 -81
-15 -81 -5 0 -14 18 -20 39 -6 24 -31 62 -60 94 -28 30 -50 60 -50 66 0 18 38
13 89 -13z m-294 -26 c8 -13 -20 -66 -127 -238 -532 -857 -571 -926 -584
-1007 -7 -50 -22 -68 -44 -55 -21 13 -15 82 13 143 25 54 571 980 628 1064 59
89 97 120 114 93z m-871 -1272 c3 -13 6 -35 6 -50 0 -15 16 -74 35 -132 46
-138 74 -356 50 -392 -40 -61 -171 0 -224 105 -11 20 -25 64 -31 99 -11 53
-10 71 4 129 20 79 53 147 102 215 40 54 49 58 58 26z m249 -117 c40 -21 92
-42 114 -46 29 -4 43 -12 46 -26 4 -14 0 -19 -16 -20 -81 -6 -167 25 -224 78
-68 64 -28 71 80 14z"/>
<path d="M5312 4003 c-555 -934 -594 -1012 -596 -1193 -1 -52 5 -113 11 -136
19 -60 66 -126 120 -164 45 -33 52 -34 129 -34 91 0 170 27 270 90 57 36 134
111 134 131 0 7 3 13 8 13 4 0 15 14 24 30 9 17 13 30 7 30 -11 0 -93 -83
-116 -117 -9 -13 -21 -23 -28 -23 -7 0 -18 -7 -25 -15 -7 -8 -16 -13 -20 -10
-4 3 -21 -2 -36 -10 -20 -10 -32 -11 -41 -3 -10 8 -13 7 -13 -3 0 -12 -2 -12
-9 0 -7 11 -9 11 -14 0 -4 -11 -7 -12 -18 -1 -7 6 -21 12 -31 12 -10 0 -18 5
-18 11 0 6 -9 9 -19 6 -20 -5 -31 9 -36 50 -5 35 -16 64 -23 59 -4 -2 -7 8 -8
22 -1 37 -14 113 -19 123 -3 4 -1 10 5 14 6 4 7 13 1 23 -5 9 -9 20 -10 25 -1
4 -1 9 -2 12 -5 23 -2 85 4 85 4 0 7 8 7 19 0 10 7 38 16 62 9 24 16 57 16 72
-1 18 4 27 11 24 8 -3 12 9 13 33 2 31 25 111 54 185 54 136 93 218 279 578
61 119 110 217 107 217 -3 0 -63 -98 -134 -217z"/>
<path d="M4965 3931 c-3 -12 -11 -21 -16 -21 -5 0 -9 -5 -9 -11 0 -6 -6 -17
-14 -25 -8 -7 -112 -177 -232 -376 -119 -200 -222 -367 -229 -373 -6 -5 -70
-111 -140 -235 -71 -124 -205 -353 -298 -510 -208 -350 -286 -497 -326 -618
-55 -166 -50 -275 17 -411 32 -66 321 -368 418 -437 244 -175 591 -226 816
-119 81 38 175 121 248 220 14 18 14 19 -2 6 -16 -12 -27 -3 -108 77 -50 50
-100 94 -112 98 -50 16 -52 27 -14 123 20 48 36 94 36 101 0 17 30 120 41 142
13 26 11 38 -7 38 -12 0 -15 6 -10 24 9 35 -2 60 -20 45 -8 -6 -14 -20 -14
-31 0 -10 -4 -17 -10 -13 -5 3 -6 13 -3 21 5 14 3 15 -18 4 -13 -7 -28 -19
-32 -27 -6 -10 -17 -13 -33 -9 -21 6 -27 1 -40 -30 -12 -29 -18 -34 -25 -23
-7 11 -10 10 -15 -8 -3 -11 -14 -23 -24 -26 -10 -3 -20 -18 -24 -39 -3 -20
-15 -46 -26 -58 -23 -27 -25 -34 -7 -25 6 4 1 -3 -11 -14 -13 -11 -26 -35 -29
-52 -2 -17 -15 -42 -29 -56 -13 -13 -24 -28 -24 -34 0 -9 -50 -61 -82 -84 -25
-19 -123 -65 -138 -66 -8 0 -33 -11 -55 -23 -31 -17 -39 -27 -37 -45 2 -23 0
-24 -50 -17 -29 3 -64 8 -78 11 -14 3 7 -6 45 -20 l70 -25 -49 6 c-96 11 -274
90 -346 154 -19 16 -10 14 35 -10 41 -22 50 -24 30 -9 -16 12 -60 52 -96 88
-115 116 -166 272 -121 375 26 58 66 96 93 89 11 -3 19 -2 18 3 -4 21 2 33 14
29 6 -2 31 -6 54 -9 32 -4 51 -14 87 -51 25 -25 46 -49 46 -54 0 -14 143 -105
162 -104 10 1 20 -3 23 -8 4 -5 10 -7 15 -4 5 3 20 1 34 -4 38 -15 105 -21
111 -10 4 5 26 7 50 5 28 -3 50 1 64 10 12 9 24 13 29 11 4 -3 22 2 41 12 23
11 35 24 38 41 2 14 8 27 13 28 6 2 10 9 10 16 0 6 14 20 30 29 17 10 30 25
30 33 0 8 4 13 8 10 9 -5 12 9 13 59 0 24 2 26 8 11 9 -24 16 -12 20 34 1 19
8 41 15 48 25 26 -6 203 -47 263 -26 40 -165 117 -214 118 -17 1 -44 6 -58 11
-23 9 -26 14 -20 37 7 31 39 62 69 68 52 10 93 11 129 3 22 -5 56 -10 77 -12
20 -2 47 -9 59 -15 23 -13 45 -6 35 11 -4 6 1 8 13 4 12 -4 25 -1 33 9 7 8 22
15 34 16 15 0 11 4 -16 17 -21 9 -38 22 -38 29 0 7 -5 13 -11 13 -6 0 -36 18
-67 40 -107 77 -139 167 -129 363 6 136 26 198 123 388 38 74 68 137 66 142
-1 4 3 7 9 7 7 0 9 10 7 25 -3 14 -2 28 2 30 5 3 6 15 3 26 -6 21 -7 21 -21 3
-13 -18 -14 -18 -7 4 4 13 2 22 -4 22 -6 0 -10 3 -9 8 0 4 -3 16 -7 26 -6 13
-4 21 3 24 7 2 10 8 6 13 -3 5 0 8 8 7 7 -2 13 5 13 15 0 10 6 22 14 26 9 6
10 11 2 15 -8 5 -8 13 1 29 7 12 11 26 10 30 -1 4 10 33 25 65 15 31 27 60 27
64 1 3 4 10 9 14 4 4 7 18 7 30 0 13 4 25 9 28 12 8 46 115 38 122 -3 3 -8 -4
-12 -15z m-95 -1610 c0 -6 -4 -13 -10 -16 -5 -3 -10 1 -10 9 0 9 5 16 10 16 6
0 10 -4 10 -9z m-519 -330 c-6 -11 -11 -46 -11 -78 0 -101 56 -170 146 -181
l49 -6 -35 -8 c-107 -24 -180 47 -180 177 0 62 27 155 37 128 2 -7 0 -21 -6
-32z"/>
</g>
</svg>
